<?xml version="1.0" encoding="utf-8"?>
<!-- Generator: Adobe Illustrator 19.1.0, SVG Export Plug-In . SVG Version: 6.00 Build 0)  -->
<svg version="1.1" id="Capa_1" xmlns="http://www.w3.org/2000/svg" xmlns:xlink="http://www.w3.org/1999/xlink" x="0px" y="0px"
	 viewBox="-243 334 125 125" style="enable-background:new -243 334 125 125;" xml:space="preserve">
<style type="text/css">
	.st0{fill:#FFFFFF;}
</style>
<g>
	<g>
		<path class="st0" d="M-137.4,421.6c2.6-5.2,2.7-11.5-1.7-15.5c2-5.9,0.4-13.3-5.6-15.5c1.1-3.6,1.3-7.7-0.6-11
			c-1.7-2.9-5.3-3.7-8.5-3.6c3.5-7.5,8.8-16.9,15.7-23.7l1-0.9l-0.8-1.1c-0.6-0.7-14-18.2-31-12.9l-1.2,0.4l0.1,1.2
			c0,0.3,2.2,30.5-4.2,44c-0.6,0.3-1.2,0.6-1.7,0.9c-0.9-2.9-2.1-5.8-3.4-8.6c-2.8-6.4-7.1-14.9-12.9-22.2c2.7-2.4,1.3-6.4,0.3-8.5
			c3.6-3.2,9-6.7,15.2-7.4c0.6,1.7,2,4.7,4.6,5.6c-0.1-2.2-0.2-3.6-0.2-3.7l-0.2-2.5l2.3-0.7c0.9-0.3,1.8-0.5,2.8-0.7l-1-0.3
			c-17-5.3-30.4,12.1-31,12.9l-0.8,1.1l1,1c7.4,7.2,12.9,17.4,16.4,25.2c-10.4,3.6-14.2,12.5-17.5,20.4c-2.3,5.5-4.3,10.3-8.1,12.1
			l-0.1-0.4l-1.2-3.6l-16.9,5.5l16.2,49.8l16.9-5.5l-1-3c15.3-4.4,31.2-6.2,46.7-9.8c4.8-1.1,9.7-2.2,12.3-6.7
			C-133.3,430.2-134.9,425-137.4,421.6z M-217.4,417.2l-1.6-4.9l4.9-1.6l1.6,4.9L-217.4,417.2z M-167.3,366.9c0.5,1.9,2,3.7,4.3,4.8
			c3.5,1.6,7.2,0.8,8.4-1.8c1.2-2.6-0.6-6-4.1-7.6c-3.4-1.6-7.1-0.8-8.4,1.7c0.6-7,0.5-13.8,0.4-18.7c3.5,0,5.3-3.8,6-5.8
			c6.2,0.6,11.6,4.2,15.2,7.4c-1,2.1-2.4,6,0.3,8.5c-5.4,6.8-9.6,14.7-12.3,20.9c-4.3,0.8-8.6,2.5-12.6,4.4
			C-168.6,376.7-167.8,371.9-167.3,366.9z M-182.6,375.6C-182.6,375.6-182.6,375.6-182.6,375.6l-0.1-0.3
			C-182.7,375.4-182.6,375.5-182.6,375.6z M-142.1,432.7c-4,2.5-9.8,3.2-14.4,4.1c-12.9,2.6-26.9,4.3-39.6,8l-10.5-31.4
			c5.8-2.4,9.4-9.3,11.9-15.3c2.9-6.8,5.9-13.8,13.3-16.7c0.9,2.3,1.5,4.4,2.3,7c0.4,1.4,2,1.7,3.1,1.1c6-3.3,12.5-6.8,19.4-8
			c0,0,0.1,0,0.1,0c0,0,0-0.1,0-0.1c0.1,0,0.2,0,0.3-0.1c2.1-0.3,5.4-0.5,6.5,1.8c0.8,1.7,0.5,3.8,0.1,5.6c-0.2,1.1-0.7,2.7-0.8,2.9
			c-0.5,1.1,0,2.8,1.4,3c5.5,0.7,6.3,6.9,4.2,11.1c-0.4,0.8-0.3,2,0.5,2.5c4.3,3.1,3.6,7.9,1.2,12.1c-0.3,0.6-0.3,1.6,0.1,2.1
			C-140.4,425.5-138.2,430.3-142.1,432.7z"/>
		<path class="st0" d="M-178.6,360.1c-3.5,1.6-5.3,5-4.1,7.6c1.2,2.6,5,3.4,8.4,1.8c0.5-0.2,1-0.5,1.5-0.8c0.4-2.8,0.6-5.8,0.7-8.6
			C-173.9,359-176.3,359-178.6,360.1z"/>
	</g>
</g>
</svg>
